<?xml version="1.0" encoding="UTF-8" standalone="no"?>
<!DOCTYPE svg PUBLIC "-//W3C//DTD SVG 1.1//EN"
 "http://www.w3.org/Graphics/SVG/1.1/DTD/svg11.dtd">
<!-- Generated by graphviz version 13.1.2 (20250808.2320)
 -->
<!-- Title: G Pages: 1 -->
<svg width="198pt" height="148pt"
 viewBox="0.00 0.00 198.00 148.00" xmlns="http://www.w3.org/2000/svg" xmlns:xlink="http://www.w3.org/1999/xlink">
<g id="graph0" class="graph" transform="scale(1 1) rotate(0) translate(4 144)">
<title>G</title>
<polygon fill="white" stroke="none" points="-4,4 -4,-144 194,-144 194,4 -4,4"/>
<g id="clust1" class="cluster">
<title>cluster_G</title>
<path fill="#808080" fill-opacity="0.094118" stroke="black" d="M20,-8C20,-8 170,-8 170,-8 176,-8 182,-14 182,-20 182,-20 182,-120 182,-120 182,-126 176,-132 170,-132 170,-132 20,-132 20,-132 14,-132 8,-126 8,-120 8,-120 8,-20 8,-20 8,-14 14,-8 20,-8"/>
</g>
<!-- percell__main__main -->
<g id="node1" class="node">
<title>percell__main__main</title>
<ellipse fill="#ffffff" fill-opacity="0.698039" stroke="black" cx="95" cy="-106" rx="78.99" ry="18"/>
<text xml:space="preserve" text-anchor="middle" x="95" y="-100.95" font-family="Times,serif" font-size="14.00" fill="#000000">percell.main.main</text>
</g>
<!-- percell__main__main__main -->
<g id="node2" class="node">
<title>percell__main__main__main</title>
<ellipse fill="#ffffff" fill-opacity="0.698039" stroke="black" cx="95" cy="-34" rx="29.86" ry="18"/>
<text xml:space="preserve" text-anchor="middle" x="95" y="-28.95" font-family="Times,serif" font-size="14.00" fill="#000000">main</text>
</g>
<!-- percell__main__main&#45;&gt;percell__main__main__main -->
<g id="edge1" class="edge">
<title>percell__main__main&#45;&gt;percell__main__main__main</title>
<path fill="none" stroke="#000000" d="M95,-87.7C95,-80.41 95,-71.73 95,-63.54"/>
<polygon fill="#000000" stroke="#000000" points="98.5,-63.62 95,-53.62 91.5,-63.62 98.5,-63.62"/>
</g>
</g>
</svg>
