<?xml version="1.0" encoding="UTF-8" standalone="no"?>
<!DOCTYPE svg PUBLIC "-//W3C//DTD SVG 1.1//EN"
 "http://www.w3.org/Graphics/SVG/1.1/DTD/svg11.dtd">
<!-- Generated by graphviz version 13.1.2 (20250808.2320)
 -->
<!-- Title: G Pages: 1 -->
<svg width="1227pt" height="1080pt"
 viewBox="0.00 0.00 1227.00 1080.00" xmlns="http://www.w3.org/2000/svg" xmlns:xlink="http://www.w3.org/1999/xlink">
<g id="graph0" class="graph" transform="scale(1 1) rotate(0) translate(4 1076.39)">
<title>G</title><style>.edge>path:hover{stroke-width:8}</style>
<polygon fill="white" stroke="none" points="-4,4 -4,-1076.39 1223.26,-1076.39 1223.26,4 -4,4"/>
<!-- percell -->
<g id="node1" class="node">
<title>percell</title><style>.edge>path:hover{stroke-width:8}</style>
<ellipse fill="#d10505" stroke="black" cx="1148.09" cy="-507.17" rx="27" ry="18"/>
<text xml:space="preserve" text-anchor="middle" x="1148.09" y="-503.3" font-family="Helvetica,sans-Serif" font-size="10.00" fill="#ffffff">percell</text>
</g>
<!-- percell_core -->
<g id="node2" class="node">
<title>percell_core</title><style>.edge>path:hover{stroke-width:8}</style>
<polygon fill="blue" stroke="black" points="835.22,-597.17 768.97,-597.17 768.97,-561.17 835.22,-561.17 835.22,-597.17"/>
<text xml:space="preserve" text-anchor="middle" x="802.09" y="-575.3" font-family="Helvetica,sans-Serif" font-size="10.00" fill="white">percell.core</text>
</g>
<!-- percell&#45;&gt;percell_core -->
<g id="edge1" class="edge">
<title>percell&#45;&gt;percell_core</title><style>.edge>path:hover{stroke-width:8}</style>
<path fill="none" stroke="black" d="M1122.37,-513.38C1063.87,-525.21 920.27,-554.26 846.87,-569.11"/>
<polygon fill="#d10505" stroke="black" points="846.31,-565.66 837.2,-571.07 847.7,-572.52 846.31,-565.66"/>
</g>
<!-- percell_core_cli -->
<g id="node3" class="node">
<title>percell_core_cli</title><style>.edge>path:hover{stroke-width:8}</style>
<polygon fill="blue" stroke="black" points="1110.09,-683.57 1056.09,-683.57 1056.09,-641.82 1110.09,-641.82 1110.09,-683.57"/>
<text xml:space="preserve" text-anchor="middle" x="1083.09" y="-670.07" font-family="Helvetica,sans-Serif" font-size="10.00" fill="white">percell.</text>
<text xml:space="preserve" text-anchor="middle" x="1083.09" y="-658.82" font-family="Helvetica,sans-Serif" font-size="10.00" fill="white">core.</text>
<text xml:space="preserve" text-anchor="middle" x="1083.09" y="-647.57" font-family="Helvetica,sans-Serif" font-size="10.00" fill="white">cli</text>
</g>
<!-- percell&#45;&gt;percell_core_cli -->
<g id="edge11" class="edge">
<title>percell&#45;&gt;percell_core_cli</title><style>.edge>path:hover{stroke-width:8}</style>
<path fill="none" stroke="black" d="M1055.09,-580.17C1044.05,-595.43 1050.63,-615.39 1060.18,-631.75"/>
<polygon fill="#d10505" stroke="black" points="1057.21,-633.59 1065.56,-640.11 1063.1,-629.81 1057.21,-633.59"/>
</g>
<!-- percell_core_config -->
<g id="node4" class="node">
<title>percell_core_config</title><style>.edge>path:hover{stroke-width:8}</style>
<ellipse fill="#e72222" stroke="black" cx="902.09" cy="-852.78" rx="33.59" ry="29.52"/>
<text xml:space="preserve" text-anchor="middle" x="902.09" y="-860.16" font-family="Helvetica,sans-Serif" font-size="10.00" fill="#ffffff">percell.</text>
<text xml:space="preserve" text-anchor="middle" x="902.09" y="-848.91" font-family="Helvetica,sans-Serif" font-size="10.00" fill="#ffffff">core.</text>
<text xml:space="preserve" text-anchor="middle" x="902.09" y="-837.66" font-family="Helvetica,sans-Serif" font-size="10.00" fill="#ffffff">config</text>
</g>
<!-- percell&#45;&gt;percell_core_config -->
<g id="edge14" class="edge">
<title>percell&#45;&gt;percell_core_config</title><style>.edge>path:hover{stroke-width:8}</style>
<path fill="none" stroke="black" d="M1055.09,-580.17C1007.05,-646.54 1032.15,-680.52 1002.09,-756.74"/>
<path fill="none" stroke="black" d="M1002.09,-758.74C990.94,-789.28 963.05,-813.8 939.55,-829.98"/>
<polygon fill="#d10505" stroke="black" points="937.82,-826.93 931.4,-835.35 941.68,-832.77 937.82,-826.93"/>
</g>
<!-- percell_core_logger -->
<g id="node5" class="node">
<title>percell_core_logger</title><style>.edge>path:hover{stroke-width:8}</style>
<ellipse fill="#e72222" stroke="black" cx="1002.09" cy="-852.78" rx="33.59" ry="29.52"/>
<text xml:space="preserve" text-anchor="middle" x="1002.09" y="-860.16" font-family="Helvetica,sans-Serif" font-size="10.00" fill="#ffffff">percell.</text>
<text xml:space="preserve" text-anchor="middle" x="1002.09" y="-848.91" font-family="Helvetica,sans-Serif" font-size="10.00" fill="#ffffff">core.</text>
<text xml:space="preserve" text-anchor="middle" x="1002.09" y="-837.66" font-family="Helvetica,sans-Serif" font-size="10.00" fill="#ffffff">logger</text>
</g>
<!-- percell&#45;&gt;percell_core_logger -->
<g id="edge19" class="edge">
<title>percell&#45;&gt;percell_core_logger</title><style>.edge>path:hover{stroke-width:8}</style>
<path fill="none" stroke="black" d="M1002.09,-758.74C995.5,-775.47 994.64,-795.24 995.77,-812.24"/>
<polygon fill="#d10505" stroke="black" points="992.27,-812.37 996.69,-822 999.24,-811.71 992.27,-812.37"/>
</g>
<!-- percell_core_pipeline -->
<g id="node7" class="node">
<title>percell_core_pipeline</title><style>.edge>path:hover{stroke-width:8}</style>
<ellipse fill="#bc2f2f" stroke="black" cx="965.09" cy="-662.7" rx="34.65" ry="29.52"/>
<text xml:space="preserve" text-anchor="middle" x="965.09" y="-670.07" font-family="Helvetica,sans-Serif" font-size="10.00" fill="#ffffff">percell.</text>
<text xml:space="preserve" text-anchor="middle" x="965.09" y="-658.82" font-family="Helvetica,sans-Serif" font-size="10.00" fill="#ffffff">core.</text>
<text xml:space="preserve" text-anchor="middle" x="965.09" y="-647.57" font-family="Helvetica,sans-Serif" font-size="10.00" fill="#ffffff">pipeline</text>
</g>
<!-- percell&#45;&gt;percell_core_pipeline -->
<g id="edge29" class="edge">
<title>percell&#45;&gt;percell_core_pipeline</title><style>.edge>path:hover{stroke-width:8}</style>
<path fill="none" stroke="black" d="M1055.09,-580.17C1039.69,-601.45 1017.96,-621.33 999.71,-636.13"/>
<polygon fill="#d10505" stroke="black" points="997.92,-633.08 992.26,-642.03 1002.27,-638.57 997.92,-633.08"/>
<path fill="none" stroke="black" d="M1127.06,-519.05C1106.04,-530.93 1074.17,-551.82 1055.09,-578.17"/>
</g>
<!-- percell_core&#45;&gt;percell_core_cli -->
<g id="edge12" class="edge">
<title>percell_core&#45;&gt;percell_core_cli</title><style>.edge>path:hover{stroke-width:8}</style>
<path fill="none" stroke="black" d="M835.42,-587.44C876.61,-596.7 948.67,-613.87 1009.09,-633.17 1020.92,-636.95 1033.6,-641.61 1045.06,-646.05"/>
<polygon fill="blue" stroke="black" points="1043.61,-649.25 1054.2,-649.66 1046.18,-642.74 1043.61,-649.25"/>
</g>
<!-- percell_core&#45;&gt;percell_core_config -->
<g id="edge15" class="edge">
<title>percell_core&#45;&gt;percell_core_config</title><style>.edge>path:hover{stroke-width:8}</style>
<path fill="none" stroke="black" d="M740.09,-663.7C685.65,-723.99 799.22,-797.47 862.9,-832.03"/>
<polygon fill="blue" stroke="black" points="861.22,-835.1 871.69,-836.72 864.51,-828.92 861.22,-835.1"/>
</g>
<!-- percell_core&#45;&gt;percell_core_logger -->
<g id="edge20" class="edge">
<title>percell_core&#45;&gt;percell_core_logger</title><style>.edge>path:hover{stroke-width:8}</style>
<path fill="none" stroke="black" d="M820.4,-597.67C835.11,-613 854.8,-636.7 864.09,-661.7"/>
<path fill="none" stroke="black" d="M864.09,-663.7C883.25,-715.21 828.64,-741.5 859.09,-787.26 882.05,-821.76 907.43,-805.98 945.09,-823.26 951.02,-825.98 957.24,-828.96 963.3,-831.93"/>
<polygon fill="blue" stroke="black" points="961.41,-834.9 971.92,-836.22 964.53,-828.63 961.41,-834.9"/>
</g>
<!-- percell_core_paths -->
<g id="node6" class="node">
<title>percell_core_paths</title><style>.edge>path:hover{stroke-width:8}</style>
<ellipse fill="#e72222" stroke="black" cx="532.09" cy="-757.74" rx="33.59" ry="29.52"/>
<text xml:space="preserve" text-anchor="middle" x="532.09" y="-765.11" font-family="Helvetica,sans-Serif" font-size="10.00" fill="#ffffff">percell.</text>
<text xml:space="preserve" text-anchor="middle" x="532.09" y="-753.86" font-family="Helvetica,sans-Serif" font-size="10.00" fill="#ffffff">core.</text>
<text xml:space="preserve" text-anchor="middle" x="532.09" y="-742.61" font-family="Helvetica,sans-Serif" font-size="10.00" fill="#ffffff">paths</text>
</g>
<!-- percell_core&#45;&gt;percell_core_paths -->
<g id="edge24" class="edge">
<title>percell_core&#45;&gt;percell_core_paths</title><style>.edge>path:hover{stroke-width:8}</style>
<path fill="none" stroke="black" d="M787.34,-597.51C778.84,-607.71 768.09,-620.96 759.09,-633.17 750.06,-645.44 750.3,-650.39 740.09,-661.7"/>
<path fill="none" stroke="black" d="M740.09,-663.7C729.89,-675 733.16,-682.93 721.09,-692.22 678.24,-725.2 617.45,-741.95 576.48,-749.99"/>
<polygon fill="blue" stroke="black" points="575.91,-746.54 566.72,-751.81 577.19,-753.42 575.91,-746.54"/>
</g>
<!-- percell_core&#45;&gt;percell_core_pipeline -->
<g id="edge30" class="edge">
<title>percell_core&#45;&gt;percell_core_pipeline</title><style>.edge>path:hover{stroke-width:8}</style>
<path fill="none" stroke="black" d="M835.47,-596.87C861.49,-609.88 897.7,-627.99 925.23,-641.76"/>
<polygon fill="blue" stroke="black" points="923.46,-644.79 933.97,-646.13 926.59,-638.53 923.46,-644.79"/>
</g>
<!-- percell_core_progress -->
<g id="node8" class="node">
<title>percell_core_progress</title><style>.edge>path:hover{stroke-width:8}</style>
<ellipse fill="#c24747" stroke="black" cx="674.09" cy="-662.7" rx="37.83" ry="29.52"/>
<text xml:space="preserve" text-anchor="middle" x="674.09" y="-670.07" font-family="Helvetica,sans-Serif" font-size="10.00" fill="#ffffff">percell.</text>
<text xml:space="preserve" text-anchor="middle" x="674.09" y="-658.82" font-family="Helvetica,sans-Serif" font-size="10.00" fill="#ffffff">core.</text>
<text xml:space="preserve" text-anchor="middle" x="674.09" y="-647.57" font-family="Helvetica,sans-Serif" font-size="10.00" fill="#ffffff">progress</text>
</g>
<!-- percell_core&#45;&gt;percell_core_progress -->
<g id="edge32" class="edge">
<title>percell_core&#45;&gt;percell_core_progress</title><style>.edge>path:hover{stroke-width:8}</style>
<path fill="none" stroke="black" d="M774.63,-597.66C756.45,-609.24 732.36,-624.59 712.31,-637.36"/>
<polygon fill="blue" stroke="black" points="710.67,-634.25 704.12,-642.57 714.43,-640.15 710.67,-634.25"/>
</g>
<!-- percell_core_stages -->
<g id="node9" class="node">
<title>percell_core_stages</title><style>.edge>path:hover{stroke-width:8}</style>
<ellipse fill="#dd1818" stroke="black" cx="902.09" cy="-757.74" rx="33.59" ry="29.52"/>
<text xml:space="preserve" text-anchor="middle" x="902.09" y="-765.11" font-family="Helvetica,sans-Serif" font-size="10.00" fill="#ffffff">percell.</text>
<text xml:space="preserve" text-anchor="middle" x="902.09" y="-753.86" font-family="Helvetica,sans-Serif" font-size="10.00" fill="#ffffff">core.</text>
<text xml:space="preserve" text-anchor="middle" x="902.09" y="-742.61" font-family="Helvetica,sans-Serif" font-size="10.00" fill="#ffffff">stages</text>
</g>
<!-- percell_core&#45;&gt;percell_core_stages -->
<g id="edge34" class="edge">
<title>percell_core&#45;&gt;percell_core_stages</title><style>.edge>path:hover{stroke-width:8}</style>
<path fill="none" stroke="black" d="M864.09,-663.7C870.93,-682.07 879.09,-702.25 886.09,-719.1"/>
<polygon fill="blue" stroke="black" points="882.82,-720.37 889.91,-728.24 889.28,-717.67 882.82,-720.37"/>
</g>
<!-- percell_core_utils -->
<g id="node10" class="node">
<title>percell_core_utils</title><style>.edge>path:hover{stroke-width:8}</style>
<ellipse fill="#b65353" stroke="black" cx="802.09" cy="-662.7" rx="33.59" ry="29.52"/>
<text xml:space="preserve" text-anchor="middle" x="802.09" y="-670.07" font-family="Helvetica,sans-Serif" font-size="10.00" fill="#ffffff">percell.</text>
<text xml:space="preserve" text-anchor="middle" x="802.09" y="-658.82" font-family="Helvetica,sans-Serif" font-size="10.00" fill="#ffffff">core.</text>
<text xml:space="preserve" text-anchor="middle" x="802.09" y="-647.57" font-family="Helvetica,sans-Serif" font-size="10.00" fill="#ffffff">utils</text>
</g>
<!-- percell_core&#45;&gt;percell_core_utils -->
<g id="edge39" class="edge">
<title>percell_core&#45;&gt;percell_core_utils</title><style>.edge>path:hover{stroke-width:8}</style>
<path fill="none" stroke="black" d="M802.09,-597.46C802.09,-604.53 802.09,-613.03 802.09,-621.5"/>
<polygon fill="blue" stroke="black" points="798.59,-621.37 802.09,-631.37 805.59,-621.37 798.59,-621.37"/>
</g>
<!-- percell_core_cli&#45;&gt;percell_core_paths -->
<g id="edge25" class="edge">
<title>percell_core_cli&#45;&gt;percell_core_paths</title><style>.edge>path:hover{stroke-width:8}</style>
<path fill="none" stroke="black" d="M1055.83,-675.96C1042.07,-681.7 1024.96,-688.14 1009.09,-692.22 853.51,-732.14 662.66,-748.48 577.21,-754.15"/>
<polygon fill="blue" stroke="black" points="577.13,-750.65 567.37,-754.79 577.58,-757.64 577.13,-750.65"/>
</g>
<!-- percell_modules -->
<g id="node13" class="node">
<title>percell_modules</title><style>.edge>path:hover{stroke-width:8}</style>
<ellipse fill="#b83d3d" stroke="black" cx="1138.09" cy="-852.78" rx="37.3" ry="21.57"/>
<text xml:space="preserve" text-anchor="middle" x="1138.09" y="-854.53" font-family="Helvetica,sans-Serif" font-size="10.00" fill="#ffffff">percell.</text>
<text xml:space="preserve" text-anchor="middle" x="1138.09" y="-843.28" font-family="Helvetica,sans-Serif" font-size="10.00" fill="#ffffff">modules</text>
</g>
<!-- percell_core_cli&#45;&gt;percell_modules -->
<g id="edge41" class="edge">
<title>percell_core_cli&#45;&gt;percell_modules</title><style>.edge>path:hover{stroke-width:8}</style>
<path fill="none" stroke="black" d="M1073.09,-758.74C1076.06,-784.99 1093.74,-809.26 1109.92,-826.43"/>
<polygon fill="blue" stroke="black" points="1107.08,-828.54 1116.6,-833.19 1112.06,-823.62 1107.08,-828.54"/>
</g>
<!-- percell_modules_directory_setup -->
<g id="node18" class="node">
<title>percell_modules_directory_setup</title><style>.edge>path:hover{stroke-width:8}</style>
<ellipse fill="#db2f2f" stroke="black" cx="1119.09" cy="-1042.87" rx="58.51" ry="29.52"/>
<text xml:space="preserve" text-anchor="middle" x="1119.09" y="-1050.24" font-family="Helvetica,sans-Serif" font-size="10.00" fill="#ffffff">percell.</text>
<text xml:space="preserve" text-anchor="middle" x="1119.09" y="-1038.99" font-family="Helvetica,sans-Serif" font-size="10.00" fill="#ffffff">modules.</text>
<text xml:space="preserve" text-anchor="middle" x="1119.09" y="-1027.74" font-family="Helvetica,sans-Serif" font-size="10.00" fill="#ffffff">directory_setup</text>
</g>
<!-- percell_core_cli&#45;&gt;percell_modules_directory_setup -->
<g id="edge45" class="edge">
<title>percell_core_cli&#45;&gt;percell_modules_directory_setup</title><style>.edge>path:hover{stroke-width:8}</style>
<path fill="none" stroke="black" d="M1078.33,-684.03C1074.53,-702.88 1070.27,-731.72 1073.09,-756.74"/>
<path fill="none" stroke="black" d="M1073.09,-758.74C1077.73,-799.83 1072.22,-810.44 1073.09,-851.78"/>
<path fill="none" stroke="black" d="M1073.09,-853.78C1073.72,-883.67 1058.36,-888.72 1054.09,-918.3 1050.35,-944.28 1044.01,-953.12 1054.09,-977.35 1059.3,-989.85 1068.23,-1001.17 1077.84,-1010.72"/>
<polygon fill="blue" stroke="black" points="1075.19,-1013.03 1084.89,-1017.27 1079.95,-1007.9 1075.19,-1013.03"/>
</g>
<!-- percell_modules_set_directories -->
<g id="node22" class="node">
<title>percell_modules_set_directories</title><style>.edge>path:hover{stroke-width:8}</style>
<ellipse fill="#c04040" stroke="black" cx="1119.09" cy="-947.83" rx="56.39" ry="29.52"/>
<text xml:space="preserve" text-anchor="middle" x="1119.09" y="-955.2" font-family="Helvetica,sans-Serif" font-size="10.00" fill="#ffffff">percell.</text>
<text xml:space="preserve" text-anchor="middle" x="1119.09" y="-943.95" font-family="Helvetica,sans-Serif" font-size="10.00" fill="#ffffff">modules.</text>
<text xml:space="preserve" text-anchor="middle" x="1119.09" y="-932.7" font-family="Helvetica,sans-Serif" font-size="10.00" fill="#ffffff">set_directories</text>
</g>
<!-- percell_core_cli&#45;&gt;percell_modules_set_directories -->
<g id="edge50" class="edge">
<title>percell_core_cli&#45;&gt;percell_modules_set_directories</title><style>.edge>path:hover{stroke-width:8}</style>
<path fill="none" stroke="black" d="M1073.09,-853.78C1073.51,-873.77 1082.21,-893.92 1091.94,-910.32"/>
<polygon fill="blue" stroke="black" points="1088.95,-912.15 1097.25,-918.74 1094.87,-908.42 1088.95,-912.15"/>
</g>
<!-- percell_core_pipeline&#45;&gt;percell_core_config -->
<g id="edge16" class="edge">
<title>percell_core_pipeline&#45;&gt;percell_core_config</title><style>.edge>path:hover{stroke-width:8}</style>
<path fill="none" stroke="black" d="M964.09,-758.74C962.44,-782.98 947.58,-805.76 932.82,-822.72"/>
<polygon fill="#bc2f2f" stroke="black" points="930.4,-820.18 926.21,-829.91 935.55,-824.92 930.4,-820.18"/>
<path fill="none" stroke="black" d="M965.64,-692.65C965.77,-711.03 965.56,-735.3 964.09,-756.74"/>
</g>
<!-- percell_core_pipeline&#45;&gt;percell_core_logger -->
<g id="edge21" class="edge">
<title>percell_core_pipeline&#45;&gt;percell_core_logger</title><style>.edge>path:hover{stroke-width:8}</style>
<path fill="none" stroke="black" d="M964.09,-758.74C962.71,-779.07 970.49,-800.21 979.37,-817.19"/>
<polygon fill="#bc2f2f" stroke="black" points="976.29,-818.85 984.23,-825.86 982.39,-815.43 976.29,-818.85"/>
</g>
<!-- percell_core_pipeline&#45;&gt;percell_core_stages -->
<g id="edge35" class="edge">
<title>percell_core_pipeline&#45;&gt;percell_core_stages</title><style>.edge>path:hover{stroke-width:8}</style>
<path fill="none" stroke="black" d="M948.21,-688.63C941.22,-698.95 932.99,-711.1 925.44,-722.26"/>
<polygon fill="#bc2f2f" stroke="black" points="922.58,-720.24 919.87,-730.48 928.38,-724.16 922.58,-720.24"/>
</g>
<!-- percell_core_stages&#45;&gt;percell_core_config -->
<g id="edge17" class="edge">
<title>percell_core_stages&#45;&gt;percell_core_config</title><style>.edge>path:hover{stroke-width:8}</style>
<path fill="none" stroke="black" d="M902.09,-787.67C902.09,-795.2 902.09,-803.44 902.09,-811.44"/>
<polygon fill="#dd1818" stroke="black" points="898.59,-811.36 902.09,-821.36 905.59,-811.36 898.59,-811.36"/>
</g>
<!-- percell_core_stages&#45;&gt;percell_core_logger -->
<g id="edge22" class="edge">
<title>percell_core_stages&#45;&gt;percell_core_logger</title><style>.edge>path:hover{stroke-width:8}</style>
<path fill="none" stroke="black" d="M924.79,-779.85C938.59,-792.7 956.41,-809.28 971.46,-823.28"/>
<polygon fill="#dd1818" stroke="black" points="968.68,-825.47 978.38,-829.72 973.45,-820.35 968.68,-825.47"/>
</g>
<!-- percell_main -->
<g id="node11" class="node">
<title>percell_main</title><style>.edge>path:hover{stroke-width:8}</style>
<ellipse fill="#a65959" stroke="black" cx="598.09" cy="-18" rx="40.53" ry="18"/>
<text xml:space="preserve" text-anchor="middle" x="598.09" y="-14.12" font-family="Helvetica,sans-Serif" font-size="10.00" fill="#ffffff">percell.main</text>
</g>
<!-- percell_main_main -->
<g id="node12" class="node">
<title>percell_main_main</title><style>.edge>path:hover{stroke-width:8}</style>
<ellipse fill="#723131" stroke="black" cx="598.09" cy="-101.52" rx="33.59" ry="29.52"/>
<text xml:space="preserve" text-anchor="middle" x="598.09" y="-108.9" font-family="Helvetica,sans-Serif" font-size="10.00" fill="#ffffff">percell.</text>
<text xml:space="preserve" text-anchor="middle" x="598.09" y="-97.65" font-family="Helvetica,sans-Serif" font-size="10.00" fill="#ffffff">main.</text>
<text xml:space="preserve" text-anchor="middle" x="598.09" y="-86.4" font-family="Helvetica,sans-Serif" font-size="10.00" fill="#ffffff">main</text>
</g>
<!-- percell_main&#45;&gt;percell_main_main -->
<g id="edge40" class="edge">
<title>percell_main&#45;&gt;percell_main_main</title><style>.edge>path:hover{stroke-width:8}</style>
<path fill="none" stroke="black" d="M598.09,-36.29C598.09,-43.36 598.09,-51.86 598.09,-60.32"/>
<polygon fill="#a65959" stroke="black" points="594.59,-60.19 598.09,-70.19 601.59,-60.19 594.59,-60.19"/>
</g>
<!-- percell_main_main&#45;&gt;percell_core -->
<g id="edge2" class="edge">
<title>percell_main_main&#45;&gt;percell_core</title><style>.edge>path:hover{stroke-width:8}</style>
<path fill="none" stroke="black" d="M1203.09,-424.65C1147.53,-510.27 704.7,-415.26 751.09,-506.17"/>
<path fill="none" stroke="black" d="M598.09,-168.04C583.38,-197.68 1156.05,-275.34 1179.09,-299.09 1218.05,-339.23 1233.55,-375.73 1203.09,-422.65"/>
</g>
<!-- percell_main_main&#45;&gt;percell_core_cli -->
<g id="edge13" class="edge">
<title>percell_main_main&#45;&gt;percell_core_cli</title><style>.edge>path:hover{stroke-width:8}</style>
<path fill="none" stroke="black" d="M1203.09,-424.65C1167.51,-482.87 1224,-513.22 1203.09,-578.17"/>
<path fill="none" stroke="black" d="M1203.09,-580.17C1192.13,-616.87 1151.85,-638.74 1120.95,-650.44"/>
<polygon fill="#723131" stroke="black" points="1120.15,-647.01 1111.9,-653.66 1122.49,-653.61 1120.15,-647.01"/>
</g>
<!-- percell_main_main&#45;&gt;percell_core_config -->
<g id="edge18" class="edge">
<title>percell_main_main&#45;&gt;percell_core_config</title><style>.edge>path:hover{stroke-width:8}</style>
<path fill="none" stroke="black" d="M532.09,-663.7C545.81,-695.31 499.08,-695.23 489.09,-728.22 481.49,-753.33 472.03,-767.32 489.09,-787.26 536.04,-842.11 759.46,-850.67 856.7,-851.77"/>
<polygon fill="#723131" stroke="black" points="856.64,-855.27 866.67,-851.86 856.71,-848.27 856.64,-855.27"/>
</g>
<!-- percell_main_main&#45;&gt;percell_core_logger -->
<g id="edge23" class="edge">
<title>percell_main_main&#45;&gt;percell_core_logger</title><style>.edge>path:hover{stroke-width:8}</style>
<path fill="none" stroke="black" d="M1203.09,-758.74C1177.38,-823.99 1122.47,-793.22 1059.09,-823.26 1053.2,-826.05 1047,-829.07 1040.95,-832.07"/>
<polygon fill="#723131" stroke="black" points="1039.72,-828.77 1032.33,-836.36 1042.84,-835.03 1039.72,-828.77"/>
<path fill="none" stroke="black" d="M1203.09,-580.17C1180.63,-655.36 1231.86,-683.73 1203.09,-756.74"/>
</g>
<!-- percell_main_main&#45;&gt;percell_core_paths -->
<g id="edge26" class="edge">
<title>percell_main_main&#45;&gt;percell_core_paths</title><style>.edge>path:hover{stroke-width:8}</style>
<path fill="none" stroke="black" d="M532.09,-663.7C538.17,-680.48 539,-700.11 537.98,-717"/>
<polygon fill="#723131" stroke="black" points="534.52,-716.42 537.15,-726.68 541.49,-717.02 534.52,-716.42"/>
<path fill="none" stroke="black" d="M600.34,-131.32C600.63,-142.55 600.25,-155.48 598.09,-167.04"/>
<path fill="none" stroke="black" d="M598.09,-168.04C591.7,-202.4 30.87,-365.32 11.09,-394.13 -3.76,-415.76 -3.62,-431.44 11.09,-453.17 46.05,-504.81 510.87,-603.07 532.09,-661.7"/>
</g>
<!-- percell_main_main&#45;&gt;percell_core_pipeline -->
<g id="edge31" class="edge">
<title>percell_main_main&#45;&gt;percell_core_pipeline</title><style>.edge>path:hover{stroke-width:8}</style>
<path fill="none" stroke="black" d="M1203.09,-424.65C1194.46,-438.79 1191.95,-442.73 1179.09,-453.17 1152.86,-474.49 1139.15,-468.91 1112.09,-489.17 1076.12,-516.11 1070.49,-527.18 1041.09,-561.17 1022.65,-582.51 1003.51,-607.84 989.05,-627.74"/>
<polygon fill="#723131" stroke="black" points="986.25,-625.65 983.24,-635.81 991.93,-629.74 986.25,-625.65"/>
</g>
<!-- percell_main_main&#45;&gt;percell_modules -->
<g id="edge42" class="edge">
<title>percell_main_main&#45;&gt;percell_modules</title><style>.edge>path:hover{stroke-width:8}</style>
<path fill="none" stroke="black" d="M1203.09,-758.74C1193.36,-783.04 1176.22,-807.17 1161.99,-824.77"/>
<polygon fill="#723131" stroke="black" points="1159.53,-822.25 1155.83,-832.18 1164.92,-826.72 1159.53,-822.25"/>
</g>
<!-- percell_main_main&#45;&gt;percell_modules_directory_setup -->
<g id="edge46" class="edge">
<title>percell_main_main&#45;&gt;percell_modules_directory_setup</title><style>.edge>path:hover{stroke-width:8}</style>
<path fill="none" stroke="black" d="M1203.09,-758.74C1171.99,-836.33 1219.47,-864.85 1203.09,-946.83"/>
</g>
<!-- percell_modules_stage_registry -->
<g id="node24" class="node">
<title>percell_modules_stage_registry</title><style>.edge>path:hover{stroke-width:8}</style>
<ellipse fill="#9d4343" stroke="black" cx="598.09" cy="-233.57" rx="54.8" ry="29.52"/>
<text xml:space="preserve" text-anchor="middle" x="598.09" y="-240.94" font-family="Helvetica,sans-Serif" font-size="10.00" fill="#ffffff">percell.</text>
<text xml:space="preserve" text-anchor="middle" x="598.09" y="-229.69" font-family="Helvetica,sans-Serif" font-size="10.00" fill="#ffffff">modules.</text>
<text xml:space="preserve" text-anchor="middle" x="598.09" y="-218.44" font-family="Helvetica,sans-Serif" font-size="10.00" fill="#ffffff">stage_registry</text>
</g>
<!-- percell_main_main&#45;&gt;percell_modules_stage_registry -->
<g id="edge53" class="edge">
<title>percell_main_main&#45;&gt;percell_modules_stage_registry</title><style>.edge>path:hover{stroke-width:8}</style>
<path fill="none" stroke="black" d="M598.09,-168.04C594.36,-175.56 592.81,-184.21 592.49,-192.68"/>
<polygon fill="#723131" stroke="black" points="588.99,-192.55 592.69,-202.48 595.99,-192.41 588.99,-192.55"/>
</g>
<!-- percell_modules&#45;&gt;percell_modules_directory_setup -->
<g id="edge47" class="edge">
<title>percell_modules&#45;&gt;percell_modules_directory_setup</title><style>.edge>path:hover{stroke-width:8}</style>
<path fill="none" stroke="black" d="M1203.09,-948.83C1198.07,-973.99 1179.84,-995.72 1161.65,-1011.83"/>
<polygon fill="#b83d3d" stroke="black" points="1159.89,-1008.74 1154.5,-1017.86 1164.4,-1014.09 1159.89,-1008.74"/>
<path fill="none" stroke="black" d="M1161.27,-870.18C1182.34,-887.29 1209.27,-915.91 1203.09,-946.83"/>
</g>
<!-- percell_modules&#45;&gt;percell_modules_set_directories -->
<g id="edge51" class="edge">
<title>percell_modules&#45;&gt;percell_modules_set_directories</title><style>.edge>path:hover{stroke-width:8}</style>
<path fill="none" stroke="black" d="M1133.88,-874.43C1131.91,-884.07 1129.5,-895.88 1127.2,-907.14"/>
<polygon fill="#b83d3d" stroke="black" points="1123.83,-906.14 1125.26,-916.64 1130.69,-907.54 1123.83,-906.14"/>
</g>
<!-- percell_modules_advanced_workflow -->
<g id="node14" class="node">
<title>percell_modules_advanced_workflow</title><style>.edge>path:hover{stroke-width:8}</style>
<ellipse fill="#9d4343" stroke="black" cx="92.09" cy="-423.65" rx="72.3" ry="29.52"/>
<text xml:space="preserve" text-anchor="middle" x="92.09" y="-431.03" font-family="Helvetica,sans-Serif" font-size="10.00" fill="#ffffff">percell.</text>
<text xml:space="preserve" text-anchor="middle" x="92.09" y="-419.78" font-family="Helvetica,sans-Serif" font-size="10.00" fill="#ffffff">modules.</text>
<text xml:space="preserve" text-anchor="middle" x="92.09" y="-408.53" font-family="Helvetica,sans-Serif" font-size="10.00" fill="#ffffff">advanced_workflow</text>
</g>
<!-- percell_modules_advanced_workflow&#45;&gt;percell_core -->
<g id="edge3" class="edge">
<title>percell_modules_advanced_workflow&#45;&gt;percell_core</title><style>.edge>path:hover{stroke-width:8}</style>
<path fill="none" stroke="black" d="M694.09,-508.17C719.02,-522.86 746.36,-540.6 767.3,-554.55"/>
<polygon fill="#9d4343" stroke="black" points="765.22,-557.37 775.47,-560.02 769.11,-551.55 765.22,-557.37"/>
</g>
<!-- percell_modules_advanced_workflow&#45;&gt;percell_core_paths -->
<g id="edge27" class="edge">
<title>percell_modules_advanced_workflow&#45;&gt;percell_core_paths</title><style>.edge>path:hover{stroke-width:8}</style>
<path fill="none" stroke="black" d="M570.09,-663.7C580.7,-683.18 571.4,-706.26 559.34,-724.56"/>
<polygon fill="#9d4343" stroke="black" points="556.51,-722.51 553.56,-732.68 562.21,-726.57 556.51,-722.51"/>
<path fill="none" stroke="black" d="M147.39,-443.09C263.63,-483.15 526.2,-581.05 570.09,-661.7"/>
</g>
<!-- percell_modules_advanced_workflow&#45;&gt;percell_core_progress -->
<g id="edge33" class="edge">
<title>percell_modules_advanced_workflow&#45;&gt;percell_core_progress</title><style>.edge>path:hover{stroke-width:8}</style>
<path fill="none" stroke="black" d="M694.09,-508.17C732.09,-530.57 713.16,-587.32 694.68,-625.19"/>
<polygon fill="#9d4343" stroke="black" points="691.62,-623.47 690.21,-633.97 697.86,-626.65 691.62,-623.47"/>
<path fill="none" stroke="black" d="M151.69,-440.65C170.57,-445.26 191.61,-449.91 211.09,-453.17 424.09,-488.8 504.19,-403.35 694.09,-506.17"/>
</g>
<!-- percell_modules_advanced_workflow&#45;&gt;percell_core_stages -->
<g id="edge36" class="edge">
<title>percell_modules_advanced_workflow&#45;&gt;percell_core_stages</title><style>.edge>path:hover{stroke-width:8}</style>
<path fill="none" stroke="black" d="M570.09,-663.7C658,-728.5 789.24,-748.19 857.39,-754.16"/>
<polygon fill="#9d4343" stroke="black" points="856.81,-757.62 867.06,-754.94 857.37,-750.65 856.81,-757.62"/>
</g>
<!-- percell_modules_analyze_cell_masks -->
<g id="node15" class="node">
<title>percell_modules_analyze_cell_masks</title><style>.edge>path:hover{stroke-width:8}</style>
<ellipse fill="#9f5656" stroke="black" cx="440.09" cy="-423.65" rx="73.89" ry="29.52"/>
<text xml:space="preserve" text-anchor="middle" x="440.09" y="-431.03" font-family="Helvetica,sans-Serif" font-size="10.00" fill="#ffffff">percell.</text>
<text xml:space="preserve" text-anchor="middle" x="440.09" y="-419.78" font-family="Helvetica,sans-Serif" font-size="10.00" fill="#ffffff">modules.</text>
<text xml:space="preserve" text-anchor="middle" x="440.09" y="-408.53" font-family="Helvetica,sans-Serif" font-size="10.00" fill="#ffffff">analyze_cell_masks</text>
</g>
<!-- percell_modules_analyze_cell_masks&#45;&gt;percell_core -->
<g id="edge4" class="edge">
<title>percell_modules_analyze_cell_masks&#45;&gt;percell_core</title><style>.edge>path:hover{stroke-width:8}</style>
<path fill="none" stroke="black" d="M493.78,-444.31C503.47,-447.51 513.53,-450.61 523.09,-453.17 623.59,-480.08 703.12,-413.86 751.09,-506.17"/>
</g>
<!-- percell_modules_cleanup_directories -->
<g id="node16" class="node">
<title>percell_modules_cleanup_directories</title><style>.edge>path:hover{stroke-width:8}</style>
<ellipse fill="#b65353" stroke="black" cx="909.09" cy="-423.65" rx="70.71" ry="29.52"/>
<text xml:space="preserve" text-anchor="middle" x="909.09" y="-431.03" font-family="Helvetica,sans-Serif" font-size="10.00" fill="#ffffff">percell.</text>
<text xml:space="preserve" text-anchor="middle" x="909.09" y="-419.78" font-family="Helvetica,sans-Serif" font-size="10.00" fill="#ffffff">modules.</text>
<text xml:space="preserve" text-anchor="middle" x="909.09" y="-408.53" font-family="Helvetica,sans-Serif" font-size="10.00" fill="#ffffff">cleanup_directories</text>
</g>
<!-- percell_modules_create_cell_masks -->
<g id="node17" class="node">
<title>percell_modules_create_cell_masks</title><style>.edge>path:hover{stroke-width:8}</style>
<ellipse fill="#9f5656" stroke="black" cx="751.09" cy="-423.65" rx="69.12" ry="29.52"/>
<text xml:space="preserve" text-anchor="middle" x="751.09" y="-431.03" font-family="Helvetica,sans-Serif" font-size="10.00" fill="#ffffff">percell.</text>
<text xml:space="preserve" text-anchor="middle" x="751.09" y="-419.78" font-family="Helvetica,sans-Serif" font-size="10.00" fill="#ffffff">modules.</text>
<text xml:space="preserve" text-anchor="middle" x="751.09" y="-408.53" font-family="Helvetica,sans-Serif" font-size="10.00" fill="#ffffff">create_cell_masks</text>
</g>
<!-- percell_modules_create_cell_masks&#45;&gt;percell_core -->
<g id="edge5" class="edge">
<title>percell_modules_create_cell_masks&#45;&gt;percell_core</title><style>.edge>path:hover{stroke-width:8}</style>
<path fill="none" stroke="black" d="M744.83,-453.36C742.74,-469.72 742.74,-490.1 751.09,-506.17"/>
</g>
<!-- percell_modules_extract_cells -->
<g id="node19" class="node">
<title>percell_modules_extract_cells</title><style>.edge>path:hover{stroke-width:8}</style>
<ellipse fill="#9f5656" stroke="black" cx="1048.09" cy="-423.65" rx="50.56" ry="29.52"/>
<text xml:space="preserve" text-anchor="middle" x="1048.09" y="-431.03" font-family="Helvetica,sans-Serif" font-size="10.00" fill="#ffffff">percell.</text>
<text xml:space="preserve" text-anchor="middle" x="1048.09" y="-419.78" font-family="Helvetica,sans-Serif" font-size="10.00" fill="#ffffff">modules.</text>
<text xml:space="preserve" text-anchor="middle" x="1048.09" y="-408.53" font-family="Helvetica,sans-Serif" font-size="10.00" fill="#ffffff">extract_cells</text>
</g>
<!-- percell_modules_extract_cells&#45;&gt;percell_core -->
<g id="edge6" class="edge">
<title>percell_modules_extract_cells&#45;&gt;percell_core</title><style>.edge>path:hover{stroke-width:8}</style>
<path fill="none" stroke="black" d="M1011.19,-444.09C1003.99,-447.43 996.4,-450.63 989.09,-453.17 886.74,-488.77 701.12,-410.01 751.09,-506.17"/>
</g>
<!-- percell_modules_measure_roi_area -->
<g id="node20" class="node">
<title>percell_modules_measure_roi_area</title><style>.edge>path:hover{stroke-width:8}</style>
<ellipse fill="#ac4949" stroke="black" cx="598.09" cy="-423.65" rx="65.94" ry="29.52"/>
<text xml:space="preserve" text-anchor="middle" x="598.09" y="-431.03" font-family="Helvetica,sans-Serif" font-size="10.00" fill="#ffffff">percell.</text>
<text xml:space="preserve" text-anchor="middle" x="598.09" y="-419.78" font-family="Helvetica,sans-Serif" font-size="10.00" fill="#ffffff">modules.</text>
<text xml:space="preserve" text-anchor="middle" x="598.09" y="-408.53" font-family="Helvetica,sans-Serif" font-size="10.00" fill="#ffffff">measure_roi_area</text>
</g>
<!-- percell_modules_measure_roi_area&#45;&gt;percell_core -->
<g id="edge7" class="edge">
<title>percell_modules_measure_roi_area&#45;&gt;percell_core</title><style>.edge>path:hover{stroke-width:8}</style>
<path fill="none" stroke="black" d="M647.31,-443.7C687.9,-460.61 740.48,-485.74 751.09,-506.17"/>
</g>
<!-- percell_modules_resize_rois -->
<g id="node21" class="node">
<title>percell_modules_resize_rois</title><style>.edge>path:hover{stroke-width:8}</style>
<ellipse fill="#9f5656" stroke="black" cx="265.09" cy="-423.65" rx="44.72" ry="29.52"/>
<text xml:space="preserve" text-anchor="middle" x="265.09" y="-431.03" font-family="Helvetica,sans-Serif" font-size="10.00" fill="#ffffff">percell.</text>
<text xml:space="preserve" text-anchor="middle" x="265.09" y="-419.78" font-family="Helvetica,sans-Serif" font-size="10.00" fill="#ffffff">modules.</text>
<text xml:space="preserve" text-anchor="middle" x="265.09" y="-408.53" font-family="Helvetica,sans-Serif" font-size="10.00" fill="#ffffff">resize_rois</text>
</g>
<!-- percell_modules_resize_rois&#45;&gt;percell_core -->
<g id="edge8" class="edge">
<title>percell_modules_resize_rois&#45;&gt;percell_core</title><style>.edge>path:hover{stroke-width:8}</style>
<path fill="none" stroke="black" d="M751.09,-508.17C759.05,-523.48 770.12,-539.13 779.92,-551.74"/>
<polygon fill="#9f5656" stroke="black" points="777.17,-553.91 786.14,-559.55 782.64,-549.55 777.17,-553.91"/>
<path fill="none" stroke="black" d="M298.91,-443.53C306.96,-447.3 315.66,-450.82 324.09,-453.17 416.2,-478.85 707,-421.33 751.09,-506.17"/>
</g>
<!-- percell_modules_set_directories&#45;&gt;percell_modules_directory_setup -->
<g id="edge48" class="edge">
<title>percell_modules_set_directories&#45;&gt;percell_modules_directory_setup</title><style>.edge>path:hover{stroke-width:8}</style>
<path fill="none" stroke="black" d="M1119.09,-977.76C1119.09,-985.28 1119.09,-993.53 1119.09,-1001.53"/>
<polygon fill="#c04040" stroke="black" points="1115.59,-1001.44 1119.09,-1011.44 1122.59,-1001.44 1115.59,-1001.44"/>
</g>
<!-- percell_modules_stage_classes -->
<g id="node23" class="node">
<title>percell_modules_stage_classes</title><style>.edge>path:hover{stroke-width:8}</style>
<ellipse fill="#8f3d3d" stroke="black" cx="598.09" cy="-328.61" rx="55.86" ry="29.52"/>
<text xml:space="preserve" text-anchor="middle" x="598.09" y="-335.98" font-family="Helvetica,sans-Serif" font-size="10.00" fill="#ffffff">percell.</text>
<text xml:space="preserve" text-anchor="middle" x="598.09" y="-324.73" font-family="Helvetica,sans-Serif" font-size="10.00" fill="#ffffff">modules.</text>
<text xml:space="preserve" text-anchor="middle" x="598.09" y="-313.48" font-family="Helvetica,sans-Serif" font-size="10.00" fill="#ffffff">stage_classes</text>
</g>
<!-- percell_modules_stage_classes&#45;&gt;percell_core -->
<g id="edge9" class="edge">
<title>percell_modules_stage_classes&#45;&gt;percell_core</title><style>.edge>path:hover{stroke-width:8}</style>
<path fill="none" stroke="black" d="M543.77,-336.47C479.89,-345.78 379.67,-364.71 357.09,-394.13 341.12,-414.95 339.51,-433.69 357.09,-453.17 416.29,-518.75 710.36,-427.78 751.09,-506.17"/>
</g>
<!-- percell_modules_stage_classes&#45;&gt;percell_core_paths -->
<g id="edge28" class="edge">
<title>percell_modules_stage_classes&#45;&gt;percell_core_paths</title><style>.edge>path:hover{stroke-width:8}</style>
<path fill="none" stroke="black" d="M544.07,-336.75C440.19,-350.74 221.81,-381.48 211.09,-394.13 194.13,-414.15 195.36,-432.17 211.09,-453.17 245.25,-498.76 280.91,-468.78 334.09,-489.17 453.82,-535.08 525.64,-519.05 584.09,-633.17 596.06,-656.53 592.82,-667.47 584.09,-692.22 579.58,-705.02 571.33,-717.15 562.71,-727.36"/>
<polygon fill="#8f3d3d" stroke="black" points="560.21,-724.91 556.13,-734.69 565.42,-729.58 560.21,-724.91"/>
</g>
<!-- percell_modules_stage_classes&#45;&gt;percell_core_stages -->
<g id="edge37" class="edge">
<title>percell_modules_stage_classes&#45;&gt;percell_core_stages</title><style>.edge>path:hover{stroke-width:8}</style>
<path fill="none" stroke="black" d="M653.83,-332.99C795.98,-342.36 1161.18,-371.4 1165.09,-422.65"/>
<path fill="none" stroke="black" d="M1165.09,-424.65C1167.06,-450.34 1088.78,-481.97 1079.09,-489.17 1002.87,-545.89 965.99,-549.44 921.09,-633.17 907.42,-658.69 902.83,-691.16 901.58,-716.41"/>
<polygon fill="#8f3d3d" stroke="black" points="898.09,-716.19 901.26,-726.29 905.08,-716.41 898.09,-716.19"/>
</g>
<!-- percell_modules_stage_classes&#45;&gt;percell_modules_cleanup_directories -->
<g id="edge44" class="edge">
<title>percell_modules_stage_classes&#45;&gt;percell_modules_cleanup_directories</title><style>.edge>path:hover{stroke-width:8}</style>
<path fill="none" stroke="black" d="M647.96,-342.45C694.95,-354.81 767.18,-374.47 829.09,-394.13 834.58,-395.87 840.24,-397.74 845.91,-399.67"/>
<polygon fill="#8f3d3d" stroke="black" points="844.75,-402.97 855.34,-402.91 847.03,-396.35 844.75,-402.97"/>
</g>
<!-- percell_modules_stage_classes&#45;&gt;percell_modules_measure_roi_area -->
<g id="edge49" class="edge">
<title>percell_modules_stage_classes&#45;&gt;percell_modules_measure_roi_area</title><style>.edge>path:hover{stroke-width:8}</style>
<path fill="none" stroke="black" d="M598.09,-358.54C598.09,-366.06 598.09,-374.31 598.09,-382.31"/>
<polygon fill="#8f3d3d" stroke="black" points="594.59,-382.23 598.09,-392.23 601.59,-382.23 594.59,-382.23"/>
</g>
<!-- percell_modules_stage_registry&#45;&gt;percell_core -->
<g id="edge10" class="edge">
<title>percell_modules_stage_registry&#45;&gt;percell_core</title><style>.edge>path:hover{stroke-width:8}</style>
<path fill="none" stroke="black" d="M1165.09,-329.61C1173.68,-342.06 1120.19,-444.11 1108.09,-453.17 1043.91,-501.26 714.72,-434.69 751.09,-506.17"/>
<path fill="none" stroke="black" d="M639.08,-253.57C648.15,-257.19 657.83,-260.62 667.09,-263.09 774.92,-291.82 1102.14,-235.47 1165.09,-327.61"/>
</g>
<!-- percell_modules_stage_registry&#45;&gt;percell_core_stages -->
<g id="edge38" class="edge">
<title>percell_modules_stage_registry&#45;&gt;percell_core_stages</title><style>.edge>path:hover{stroke-width:8}</style>
<path fill="none" stroke="black" d="M1165.09,-329.61C1188.42,-363.75 1158.54,-381.82 1165.09,-422.65"/>
</g>
<!-- percell_modules_stage_registry&#45;&gt;percell_modules_advanced_workflow -->
<g id="edge43" class="edge">
<title>percell_modules_stage_registry&#45;&gt;percell_modules_advanced_workflow</title><style>.edge>path:hover{stroke-width:8}</style>
<path fill="none" stroke="black" d="M553.63,-251.09C463.61,-284.55 259.52,-360.42 155.54,-399.07"/>
<polygon fill="#9d4343" stroke="black" points="154.46,-395.73 146.31,-402.5 156.9,-402.3 154.46,-395.73"/>
</g>
<!-- percell_modules_stage_registry&#45;&gt;percell_modules_stage_classes -->
<g id="edge52" class="edge">
<title>percell_modules_stage_registry&#45;&gt;percell_modules_stage_classes</title><style>.edge>path:hover{stroke-width:8}</style>
<path fill="none" stroke="black" d="M598.09,-263.49C598.09,-271.02 598.09,-279.27 598.09,-287.27"/>
<polygon fill="#9d4343" stroke="black" points="594.59,-287.18 598.09,-297.18 601.59,-287.18 594.59,-287.18"/>
</g>
</g>
</svg>
